<?xml version="1.0" encoding="utf-8"?>
<!-- Generator: Adobe Illustrator 19.1.0, SVG Export Plug-In . SVG Version: 6.00 Build 0)  -->
<svg version="1.1" id="Layer_1" xmlns="http://www.w3.org/2000/svg" xmlns:xlink="http://www.w3.org/1999/xlink" x="0px" y="0px"
	 viewBox="0 0 612 100.3" style="enable-background:new 0 0 612 100.3;" xml:space="preserve">
<style type="text/css">
	.st0{fill:#FFFFFF;}
	.st1{fill:#231F20;}
</style>
<rect x="285.8" y="5.2" class="st0" width="309.9" height="89.9"/>
<path class="st1" d="M373,79.2c-6.9,6.9-16,10.3-27.6,10.3c-13.9,0-25-4.8-33.1-14.3c-6.3-7.3-9.4-15.8-9.4-25.4
	c0-7.1,1.8-13.8,5.4-19.9c3.6-6.1,8.5-10.9,14.8-14.5c6.3-3.4,13.4-5.2,21.3-5.2c6.4,0,12.4,1.2,18.1,3.4c5.6,2.3,11.2,6,16.6,11
	l-5.9,5.5c-4.2-4.1-8.8-7.2-13.9-9.4c-5-2.1-9.9-3.2-14.7-3.2c-6,0-11.6,1.4-17,4.4c-5.4,2.9-9.5,6.8-12.5,11.8
	c-2.9,5-4.5,10.3-4.5,15.7c0,5.6,1.5,11.1,4.5,16.1c3,5.1,7.3,9.2,12.7,12c5.4,2.9,11.3,4.4,17.7,4.4c7.8,0,14.4-2.2,19.7-6.6
	c5.4-4.4,8.6-10,9.6-17h-24.2v-7.4h32.6C383.3,63.1,379.9,72.3,373,79.2z"/>
<path class="st1" d="M436.7,87.7l-26.9-35.1h-4v35.1h-7.6V12.2h15c8.3,0,14,0.3,17,1c4.5,1,8.1,3.2,10.9,6.6
	c2.8,3.4,4.2,7.5,4.2,12.4c0,4.1-0.9,7.7-2.9,10.8c-1.9,3.1-4.7,5.5-8.3,7.1c-3.6,1.6-8.6,2.4-14.9,2.4l26.9,35.1L436.7,87.7
	L436.7,87.7z"/>
<polygon class="st1" points="519.2,87.7 507.6,62.9 475,62.9 463.2,87.7 454.9,87.7 490.6,12.2 492.5,12.2 527.6,87.7 "/>
<polygon class="st1" points="575.9,87.7 539.1,87.7 539.1,12.2 546.6,12.2 546.6,80.3 575.9,80.3 "/>
<path class="st0" d="M23.9,11.6h7.6v75.4h-7.6V11.6z"/>
<path class="st0" d="M48.5,87V11.6h1.6l50.3,57.3V11.6h7.6V87h-1.7L56.1,29.9V87H48.5z"/>
<path class="st0" d="M118.8,19v-7.4H160V19h-16.8V87h-7.6V19C135.6,19,118.8,19,118.8,19z"/>
<path class="st0" d="M170.9,11.6h43V19h-35.5v23.8h35.3V50h-35.3v29.6h35.3V87h-42.8V11.6L170.9,11.6z"/>
<path class="st0" d="M248.6,19c5.1,0,8.8,0.4,11.1,1.3c2.2,0.9,4,2.4,5.4,4.5s2,4.4,2,6.9c0,2.6-0.7,5-2,7.1
	c-1.3,2.1-3.2,3.6-5.6,4.6c-2.4,0.9-6.1,1.4-11.1,1.4l-12.9-0.1V19L248.6,19L248.6,19z M227.8,87h7.6V51.9h4L266.3,87h9.5
	l-26.9-35.1c6.3,0,11.3-0.8,14.9-2.4s6.4-3.9,8.3-7.1c1.9-3.1,2.9-6.7,2.9-10.8c0-5-1.4-9.1-4.2-12.4s-6.5-5.5-10.9-6.6
	c-2.9-0.7-8.7-1-17-1h-15L227.8,87L227.8,87z"/>
<path class="st0" d="M435.6,39.3c1.3-2.1,2-4.5,2-7.1c0-2.5-0.7-4.8-2-6.9s-3.2-3.5-5.4-4.5c-2.2-0.9-5.9-1.3-11.1-1.3h-13.3v25.6
	l12.9,0.1c5,0,8.7-0.5,11.1-1.4C432.4,43,434.2,41.4,435.6,39.3z"/>
<polygon class="st0" points="478.5,55.5 504.2,55.5 491.3,28.2 "/>
</svg>
